# xmcd CD database file
#
# Track frame offsets:
#	150
#	11582
#	22435
#	35355
#	49080
#	60520
#	71755
#	82860
#	100052
#	114560
#	126537
#	139267
#	149862
#	163292
#	172795
#	193862
#	205335
#	224942
#	241080
#	258752
#	274607
#
# Disc length: 3866 seconds
#
# Revision: 0
# Processed by: cddbd v1.5PL3 Copyright (c) Steve Scherf et al.
# Submitted via: CDex 1.51
#
DISCID=450f1815
DTITLE=Willie Nelson - The Essential Willie Nelson - Disc 1
DYEAR=2003
DGENRE=Country
TTITLE0=Night Life
TTITLE1=Hello Walls
TTITLE2=Crazy
TTITLE3=Funny How Time Slips Away
TTITLE4=I Never Cared for You
TTITLE5=The Party's Over
TTITLE6=Good Times
TTITLE7=Me and Paul
TTITLE8=Family Bible
TTITLE9=Shotgun Willie
TTITLE10=Bloody Mary Morning
TTITLE11=Blue Eyes Crying in the Rain
TTITLE12=Good Hearted Woman
TTITLE13=If You've Got the Money I've Got the Time
TTITLE14=Uncloudy Day
TTITLE15=Mammas Don't Let Your Babies Grow Up to Be Cowboys
TTITLE16=Georgia On My Mind
TTITLE17=Blue Skies
TTITLE18=All of Me
TTITLE19=Whiskey River (live)
TTITLE20=Stay A Little Longer (live, bonus track)
EXTD=YEAR: 2003
EXTT0=
EXTT1=
EXTT2=
EXTT3=
EXTT4=
EXTT5=
EXTT6=
EXTT7=
EXTT8=
EXTT9=
EXTT10=
EXTT11=
EXTT12=
EXTT13=
EXTT14=
EXTT15=
EXTT16=
EXTT17=
EXTT18=
EXTT19=
EXTT20=
PLAYORDER=
